<svg width="92" height="79" viewBox="0 0 92 79" fill="none" xmlns="http://www.w3.org/2000/svg">
<path d="M44.3678 0.0509415C43.9733 0.149728 43.5928 0.516647 43.4237 0.940016C43.2124 1.46217 41.3383 9.11103 41.3383 9.4215C41.3383 9.66141 41.451 9.68964 42.3669 9.68964H43.4096L43.5787 8.87112C43.8887 7.44578 43.7196 7.57279 45.3542 7.57279C46.9887 7.57279 46.8196 7.44578 47.1296 8.87112L47.2987 9.68964H48.4119C49.3701 9.68964 49.511 9.66141 49.511 9.43562C49.511 9.0687 47.5665 0.220289 47.4678 0.121503C47.3551 0.008605 44.7342 -0.0478449 44.3678 0.0509415ZM46.0869 3.69191C46.256 4.53865 46.3969 5.32894 46.411 5.41361C46.411 5.54062 46.1292 5.59707 45.4528 5.59707C44.9174 5.59707 44.4524 5.56885 44.4101 5.52651C44.3537 5.45595 44.9033 2.74639 45.0724 2.23835C45.1146 2.13956 45.2837 2.069 45.4528 2.09722C45.7346 2.13956 45.8051 2.30891 46.0869 3.69191Z" fill="white"/>
<path d="M54.161 0.827124C54.161 0.92591 54.006 3.0992 53.8087 5.66764C53.6255 8.22196 53.5128 10.367 53.5692 10.4235C53.7665 10.6211 56.0633 11.2561 56.6128 11.2702C57.0215 11.2702 57.2469 11.1855 57.5428 10.8751C57.9092 10.5082 61.911 3.19799 61.911 2.90163C61.911 2.78873 60.7837 2.42181 60.1496 2.32303C59.9101 2.28069 59.6001 2.80284 58.1769 5.55474C57.2328 7.36111 56.4155 8.89935 56.331 8.98403C56.2324 9.08281 56.1196 9.0687 55.9646 8.9558C55.7815 8.78645 55.7815 8.40542 56.0633 5.10315C56.2324 3.08509 56.3451 1.39162 56.3169 1.33517C56.2887 1.27872 55.9083 1.13759 55.4574 1.01058C55.0205 0.883574 54.5415 0.756562 54.4146 0.714226C54.2596 0.671888 54.161 0.714226 54.161 0.827124Z" fill="white"/>
<path d="M33.6305 1.50451C33.2783 1.64563 33.2642 1.65974 32.8837 4.04472C32.7287 5.01847 32.5596 5.99222 32.5174 6.2039C32.4328 6.59905 32.4046 6.57082 30.7701 4.97613C29.8683 4.08706 28.9665 3.31088 28.7833 3.26855C28.4169 3.18387 26.881 3.64958 26.9092 3.84715C26.9796 4.2564 29.6992 12.6109 29.7978 12.7097C29.9105 12.8367 31.5733 12.4274 31.6719 12.244C31.7001 12.2016 31.3619 11.0162 30.911 9.61908C30.4601 8.22196 30.1219 7.05064 30.1501 7.0083C30.1924 6.98008 30.6855 7.44578 31.2351 8.05261C32.2215 9.12515 32.2778 9.16748 32.7569 9.0687C33.6024 8.91346 33.701 8.75823 33.9546 7.14943C34.0815 6.33091 34.2365 5.6253 34.2787 5.56885C34.3351 5.5124 34.7437 6.64138 35.2087 8.08084C35.6596 9.52029 36.0824 10.7198 36.1528 10.7622C36.2655 10.8327 37.5196 10.4799 37.9846 10.24C38.2101 10.1271 38.196 10.0566 37.9565 9.29449C37.8155 8.85701 37.2096 6.98008 36.6178 5.14548C36.026 3.29677 35.4483 1.68797 35.3355 1.57507C35.096 1.33516 34.1378 1.30694 33.6305 1.50451Z" fill="white"/>
<path d="M65.631 6.33091C65.1801 7.13531 64.1374 8.98402 63.306 10.4658C62.4746 11.9335 61.8265 13.1895 61.8546 13.2459C61.911 13.3306 65.6451 15.4898 66.6596 16.0119C66.9274 16.1672 66.9978 16.1107 67.3924 15.4051C67.6319 14.9817 67.8292 14.5584 67.8292 14.4596C67.8292 14.3608 67.2515 13.9657 66.5469 13.5846C64.6587 12.5403 64.7574 12.6814 65.2365 11.8347C65.4619 11.4254 65.6874 11.1009 65.7296 11.1009C65.7719 11.1009 66.3778 11.4113 67.0683 11.8065C67.7587 12.1875 68.3928 12.5121 68.4633 12.5121C68.6324 12.5121 69.3792 11.2138 69.3792 10.9456C69.3792 10.8327 68.9846 10.5364 68.4915 10.2682C68.0124 10.0142 67.4065 9.67552 67.1528 9.52029L66.6878 9.23804L67.0683 8.57477C67.2796 8.22196 67.4628 7.89738 67.491 7.86915C67.5192 7.84093 68.1815 8.17962 68.9705 8.6171C69.7596 9.05458 70.4924 9.39328 70.591 9.35094C70.7883 9.26627 71.5915 7.75625 71.4787 7.67158C71.3519 7.55868 66.5892 4.89146 66.5187 4.89146C66.4765 4.89146 66.0678 5.54062 65.631 6.33091Z" fill="white"/>
<path d="M18.976 8.17964C17.7078 9.0546 16.6792 9.81667 16.6933 9.90134C16.6933 10.0848 21.8646 17.649 22.0337 17.7054C22.1183 17.7337 26.5005 14.8406 26.8246 14.5443C26.9092 14.4596 26.4724 13.6693 26.0778 13.1613L25.7678 12.7661L24.401 13.6975C23.6542 14.2056 22.9637 14.629 22.851 14.629C22.696 14.629 21.8928 13.5423 21.8928 13.3165C21.8928 13.2742 22.4565 12.8367 23.161 12.3569C23.936 11.8347 24.3869 11.4255 24.3305 11.3267C24.2319 11.1573 23.4287 9.94368 23.3442 9.84489C23.3301 9.81667 22.7383 10.1695 22.0478 10.6493C21.3574 11.1291 20.7374 11.5243 20.6669 11.5243C20.5683 11.5243 19.7792 10.3812 19.7792 10.2259C19.7792 10.1977 20.3851 9.76022 21.1178 9.25218C21.8505 8.75825 22.4565 8.2502 22.4565 8.13731C22.4424 7.8974 21.5265 6.58495 21.3574 6.59907C21.301 6.59907 20.2301 7.31879 18.976 8.17964Z" fill="white"/>
<path d="M73.0569 14.7277C71.2674 16.5764 69.8019 18.157 69.8019 18.2558C69.8019 18.3405 70.1542 18.7215 70.591 19.0884L71.3801 19.7658L72.5074 18.6086C73.1133 17.9736 73.6628 17.4514 73.7333 17.4514C73.9024 17.4514 74.7337 18.3687 74.7337 18.5522C74.7337 18.6368 74.3955 19.3848 74.001 20.2033L73.2683 21.6851L74.0292 22.4613C74.7901 23.2374 74.8042 23.2516 75.0015 22.9552C75.4805 22.2496 76.2837 20.3021 76.2837 19.8646C76.2837 19.4271 76.3119 19.3989 76.636 19.4836C77.3265 19.6529 78.1155 19.3001 79.0455 18.411C80.3419 17.155 80.6237 16.3648 80.1587 15.2499C79.9755 14.8124 77.0446 11.8065 76.4951 11.4819C76.3683 11.4113 75.2833 12.4415 73.0569 14.7277ZM77.5519 15.1229L78.3269 15.8991L77.5096 16.7176L76.7065 17.522L75.9033 16.7176L75.086 15.8991L75.861 15.1229C76.2837 14.6995 76.6642 14.3467 76.7065 14.3467C76.7487 14.3467 77.1292 14.6995 77.5519 15.1229Z" fill="white"/>
<path d="M11.1837 14.6995C10.916 15.0523 10.6765 15.3769 10.6624 15.4475C10.6342 15.5039 11.5219 16.3083 12.6069 17.2397C14.2133 18.5945 14.5374 18.9473 14.2978 18.9755C14.1287 19.0038 12.8324 18.8909 11.4233 18.7356C7.94282 18.3405 8.08373 18.3264 7.54828 18.9896C7.29464 19.3001 7.09737 19.5824 7.09737 19.6247C7.09737 19.7376 14.1569 25.7071 14.326 25.7353C14.481 25.7635 15.411 24.691 15.5237 24.3805C15.5519 24.2818 12.5787 21.6145 11.6205 20.8807C11.4233 20.7255 12.0151 20.7678 14.9178 21.0783L18.1446 21.4452L18.6096 20.8948C18.8633 20.5843 19.0605 20.2739 19.0465 20.1751C18.9901 19.9493 12.0715 14.0645 11.846 14.0645C11.7615 14.0786 11.4515 14.3608 11.1837 14.6995Z" fill="white"/>
<path d="M42.8178 14.5866C38.1115 14.9959 32.926 16.6893 29.0792 19.0743C21.0755 24.0418 15.6646 32.0153 14.1287 41.0754C13.7624 43.2769 13.6355 46.8191 13.8469 49.1476C14.5655 56.9376 18.1024 64.2478 23.6824 69.5258C28.4169 73.9852 33.9828 76.7513 40.5069 77.8661C42.0992 78.1484 42.8883 78.1907 45.5655 78.1907C49.6237 78.1907 51.6951 77.8661 55.5701 76.6525C60.7837 75.0154 66.406 71.191 69.9851 66.8585C70.3374 66.4352 70.746 66.1388 71.2674 65.9271C71.6901 65.7578 72.296 65.4191 72.606 65.1651C74.3533 63.7821 75.8046 60.3104 76.1569 56.6836C76.2415 55.8651 76.4528 54.4679 76.636 53.5789C77.1996 50.954 77.2842 50.2484 77.3687 47.7082C77.721 37.4062 73.6065 28.2614 65.6451 21.6004C64.391 20.5561 61.6715 18.778 60.0933 17.9736C56.9933 16.3789 52.8506 15.1088 49.3701 14.7136C47.6792 14.516 44.3678 14.4455 42.8178 14.5866ZM50.7792 16.6047C57.7401 17.8324 64.1937 21.5863 68.7733 27.0901C73.3669 32.608 75.8751 39.6783 75.6919 46.6638C75.6637 47.7646 75.6074 48.315 75.5369 48.1456C75.4665 47.9904 75.2692 47.4541 75.0719 46.9461C74.3392 44.9704 73.0287 43.2204 71.7605 42.5572C71.1969 42.2467 70.9433 42.2185 68.7169 42.1761C66.3919 42.1197 66.251 42.1338 65.5324 42.4725C64.6587 42.8676 63.9401 43.4745 63.3905 44.2648L62.996 44.8292H62.0378H61.0656V43.9825C61.0656 43.2769 61.0092 43.0652 60.7415 42.7971C60.4315 42.4866 60.2765 42.4584 57.6837 42.3596C56.176 42.3031 54.8092 42.2044 54.6401 42.1338C54.471 42.0773 53.9356 41.654 53.4424 41.2024L52.5687 40.3698L53.4001 39.9605C54.5696 39.396 56.0915 37.8437 56.7396 36.5453C59.7128 30.6464 56.8946 23.2798 51.3287 22.3907C50.6805 22.2778 49.3842 22.2496 47.9469 22.2778C45.9178 22.3342 45.5233 22.3766 44.7624 22.6871C43.5928 23.1386 42.3669 24.056 41.5355 25.0861C40.8733 25.9188 40.8733 25.9188 40.6619 25.5942C40.2955 25.0579 39.1824 23.9289 38.5624 23.5056C38.2242 23.2657 37.5337 22.9129 37.0124 22.7153C36.1387 22.3766 35.8428 22.3342 33.5037 22.2778C31.8692 22.2355 30.6715 22.2778 30.1642 22.3907C27.4305 22.9552 24.9928 25.5519 24.1333 28.84C23.7951 30.1242 23.7387 32.4387 24.0065 33.7652C24.401 35.6986 25.5283 37.7872 26.8387 38.9585C27.7265 39.7488 29.3046 40.5532 30.2205 40.6802C30.9815 40.779 31.0378 40.8637 30.6433 41.2165C30.3615 41.4705 30.2769 41.4846 25.4155 42.1479C22.3296 42.5713 22.231 42.5854 21.8224 42.9946L21.3996 43.418L21.3292 53.8329L21.2587 64.2336L20.7374 63.528C20.4555 63.1329 19.8215 62.1309 19.3424 61.2842C14.4246 52.6475 14.0865 42.0915 18.4265 33.1866C22.3155 25.2132 29.5301 19.3142 38.0974 17.1127C41.0424 16.3647 42.6346 16.1813 46.0587 16.2377C48.2992 16.2801 49.4406 16.3647 50.7792 16.6047ZM33.701 23.9007C36.0119 25.0297 37.6746 28.1767 37.6746 31.4226C37.6746 33.7652 36.7446 36.2913 35.3496 37.759C34.5746 38.5775 33.1515 39.4666 32.6583 39.4666C32.5033 39.4525 32.6865 39.2972 33.0951 39.0855C35.3919 37.886 36.9701 34.7672 36.9701 31.4226C36.9701 28.1344 35.4905 25.2132 33.2078 23.9713C32.2074 23.4209 32.6019 23.3786 33.701 23.9007ZM49.3419 23.9431C51.4274 25.0015 52.9915 27.6687 53.2451 30.6605C53.4706 33.2572 52.3574 36.5312 50.7228 38.0271C49.9056 38.761 48.5246 39.5371 48.2146 39.4383C48.116 39.396 48.3696 39.1984 48.7924 38.9868C50.3142 38.2106 51.6951 36.2207 52.2869 33.9628C52.6674 32.5374 52.6251 29.9549 52.2024 28.6001C51.5401 26.455 50.441 24.9309 48.891 24.0136C47.8624 23.4068 48.1583 23.3644 49.3419 23.9431ZM36.3783 23.7455C36.5474 23.8019 36.6883 23.8866 36.6883 23.9572C36.6883 24.1547 36.0683 24.0983 35.7583 23.8725C35.4905 23.6749 35.4905 23.6749 35.7724 23.6608C35.9274 23.6608 36.1951 23.7031 36.3783 23.7455ZM51.9628 23.7455C52.0896 23.7878 52.1883 23.8866 52.1883 23.9572C52.1883 24.1688 51.526 24.0983 51.3428 23.8725C51.2019 23.7031 51.216 23.6608 51.4556 23.6608C51.6105 23.6608 51.836 23.7031 51.9628 23.7455ZM38.5483 24.9874C38.9005 25.2555 38.7174 25.3543 37.886 25.3543C37.2237 25.3543 36.8292 25.1849 36.8292 24.9027C36.8292 24.7192 38.2946 24.7898 38.5483 24.9874ZM54.1328 24.9591C54.4428 25.2696 54.316 25.3543 53.5551 25.3543C52.9774 25.3543 52.7378 25.2837 52.5406 25.072C52.2869 24.7898 52.301 24.7898 53.1183 24.7898C53.5833 24.7898 54.0342 24.8604 54.1328 24.9591ZM39.6192 26.2292C39.9433 26.5538 39.7883 26.6244 38.8019 26.6244C38.2665 26.6244 37.8155 26.5962 37.8155 26.5679C37.8155 26.5397 37.7733 26.4127 37.731 26.2857C37.6605 26.0881 37.7874 26.0599 38.5483 26.0599C39.0555 26.0599 39.5205 26.1305 39.6192 26.2292ZM55.2601 26.3845C55.3024 26.6103 55.2178 26.6385 54.3442 26.5962C53.5551 26.5679 53.386 26.5115 53.3437 26.2998C53.3015 26.074 53.386 26.0458 54.2596 26.0881C55.0487 26.1163 55.2178 26.1728 55.2601 26.3845ZM32.7006 27.6405C33.9546 28.2191 34.7437 29.6868 34.7719 31.479C34.786 32.8761 34.4619 33.8781 33.6869 34.7531C32.151 36.4889 29.9105 36.3054 28.5578 34.3297C27.966 33.4688 27.7687 32.7209 27.7687 31.4931C27.7969 29.3763 28.9805 27.6546 30.6433 27.3441C31.4042 27.203 31.9255 27.2736 32.7006 27.6405ZM48.2569 27.6122C50.5678 28.7977 51.1174 32.8479 49.2151 34.8095C47.7778 36.2772 45.9319 36.3054 44.551 34.866C43.6774 33.9487 43.3815 33.116 43.3955 31.5637C43.3955 30.3359 43.4237 30.1525 43.8324 29.3763C44.396 28.2896 44.9455 27.7816 45.8755 27.457C46.721 27.1607 47.4396 27.203 48.2569 27.6122ZM40.0419 27.5699C40.0137 27.7675 39.8305 27.838 39.2387 27.8663C38.5201 27.9086 38.2524 27.7957 38.2383 27.4288C38.2383 27.3723 38.661 27.33 39.1683 27.33C39.9715 27.33 40.0842 27.3582 40.0419 27.5699ZM55.9646 27.6546C56.0069 27.8804 55.9083 27.9086 54.9783 27.8663C54.1187 27.8239 53.9496 27.7816 53.9074 27.5699C53.8651 27.3441 53.9637 27.3159 54.8937 27.3582C55.7533 27.4006 55.9224 27.4429 55.9646 27.6546ZM39.6474 28.8965C39.6474 29.1364 39.5769 29.1787 39.1965 29.1364C38.8865 29.1082 38.7174 29.0094 38.6892 28.84C38.6469 28.6424 38.7456 28.6001 39.1401 28.6001C39.5628 28.6001 39.6474 28.6566 39.6474 28.8965ZM56.3874 28.9106C56.4296 29.1364 56.3028 29.1646 55.3728 29.1646C54.3865 29.1646 54.3019 29.1364 54.3019 28.8824C54.3019 28.6142 54.3724 28.586 55.3165 28.6283C56.1619 28.6566 56.3451 28.713 56.3874 28.9106ZM39.436 30.1525C39.436 30.2654 39.3233 30.3783 39.1965 30.4065C39.0133 30.4347 38.9428 30.3641 38.9428 30.1525C38.9428 29.9408 39.0133 29.8702 39.1965 29.8984C39.3233 29.9267 39.436 30.0396 39.436 30.1525ZM56.6269 30.1525C56.6269 30.3218 56.4015 30.3783 55.6124 30.4065C54.6542 30.4488 54.5837 30.4347 54.5837 30.1525C54.5837 29.8702 54.6542 29.8561 55.6124 29.8984C56.4015 29.9267 56.6269 29.9831 56.6269 30.1525ZM39.3655 31.5072C39.3655 31.733 39.1401 31.7754 39.0133 31.5637C38.9005 31.3802 39.0696 31.1121 39.2387 31.2109C39.3092 31.2673 39.3655 31.3943 39.3655 31.5072ZM56.6692 31.4508C56.7115 31.6766 56.5846 31.7048 55.6546 31.7048C54.8515 31.7048 54.5837 31.6625 54.5837 31.5214C54.5837 31.1827 54.7669 31.1262 55.6969 31.1685C56.4437 31.1968 56.6269 31.2532 56.6692 31.4508ZM39.3655 32.7632C39.3655 32.8761 39.2669 32.9749 39.1542 32.9749C39.0415 32.9749 38.9428 32.8761 38.9428 32.7632C38.9428 32.6503 39.0415 32.5515 39.1542 32.5515C39.2669 32.5515 39.3655 32.6503 39.3655 32.7632ZM56.6974 32.7632C56.6974 32.9326 56.4719 32.9749 55.5701 32.9749C54.6401 32.9749 54.471 32.9467 54.5274 32.7632C54.5978 32.608 54.8656 32.5515 55.6546 32.5515C56.486 32.5515 56.6974 32.5939 56.6974 32.7632ZM56.3451 34.0333C56.3451 34.2874 56.2324 34.3156 55.3306 34.3579C54.4006 34.4003 54.3019 34.372 54.3019 34.1321C54.3019 33.7229 54.4428 33.6664 55.4292 33.7088C56.2324 33.7511 56.3451 33.7793 56.3451 34.0333ZM39.6192 34.0616C39.5628 34.3438 38.9851 34.4849 38.7737 34.2733C38.5483 34.0475 38.7878 33.8217 39.2387 33.8217C39.5769 33.8217 39.6615 33.8781 39.6192 34.0616ZM39.9996 35.3599C39.9996 35.501 39.7883 35.5857 39.3233 35.6139C38.4919 35.6845 38.2101 35.5998 38.3228 35.3034C38.4496 34.993 39.9996 35.0494 39.9996 35.3599ZM55.9928 35.2893C55.9928 35.5716 55.6687 35.6563 54.7105 35.6563C54.1187 35.6563 53.8792 35.5998 53.8792 35.4728C53.8792 35.1482 54.0342 35.0918 55.0346 35.0918C55.7533 35.0918 55.9928 35.1341 55.9928 35.2893ZM39.7883 36.4748C39.7883 36.7711 39.3796 36.9264 38.5624 36.9264C38.0692 36.9264 37.6746 36.8981 37.6746 36.8699C37.6746 36.4607 37.9001 36.3619 38.816 36.3619C39.3515 36.3619 39.7883 36.4183 39.7883 36.4748ZM55.4292 36.4748C55.4292 36.7711 55.0205 36.9264 54.2033 36.9264C53.5551 36.9264 53.3156 36.8699 53.3156 36.7429C53.3156 36.63 53.3578 36.503 53.4142 36.4607C53.541 36.3195 55.4292 36.3336 55.4292 36.4748ZM41.0565 37.3497C41.0565 37.4203 41.4651 37.9283 41.9724 38.4646C42.4796 38.9868 42.8883 39.4666 42.8883 39.523C42.8883 39.5654 41.9724 39.6077 40.8451 39.6077C39.6756 39.6077 38.8019 39.5512 38.8019 39.4807C38.8019 39.4101 38.9851 39.2126 39.1965 39.0573C39.4219 38.9021 39.8728 38.4223 40.211 37.9848C40.7746 37.2509 41.0565 37.0393 41.0565 37.3497ZM38.8019 37.7731C38.8019 38.013 38.2665 38.1965 37.5478 38.1965C37.1533 38.1965 36.8292 38.1682 36.8292 38.14C36.8292 37.7449 37.0546 37.632 37.9001 37.632C38.3933 37.632 38.8019 37.6884 38.8019 37.7731ZM54.2315 37.9142C54.0342 38.1259 53.7946 38.1965 53.2451 38.1965C52.4419 38.1965 52.2587 38.1118 52.4842 37.8154C52.5969 37.7025 52.9633 37.632 53.5692 37.632C54.471 37.632 54.4851 37.632 54.2315 37.9142ZM36.9701 38.9726C36.9701 39.0714 36.4628 39.269 35.8428 39.396L35.3496 39.4948L35.6174 39.1984C35.8005 39.0009 36.0542 38.9021 36.4346 38.9021C36.7305 38.9021 36.9701 38.9303 36.9701 38.9726ZM52.3292 39.0997C51.8924 39.3396 51.061 39.523 51.061 39.3819C51.061 39.1561 51.5965 38.9162 52.1178 38.9162C52.6674 38.9162 52.6815 38.9162 52.3292 39.0997ZM66.3778 44.3071C65.9692 44.8716 65.476 45.7042 65.2646 46.1699C64.3205 48.3009 63.7428 51.3068 63.7428 54.1857V55.9638L63.2919 56.0062L62.8269 56.0485L62.8551 57.2481C62.9115 59.1532 63.5878 61.6511 64.4615 63.1611C64.9546 64.0078 64.6165 63.7962 64.0387 62.9071C60.8965 58.0384 61.3615 47.9057 64.8701 44.3777C65.3351 43.9261 65.8846 43.5168 66.1524 43.4462C67.1387 43.164 67.1528 43.2204 66.3778 44.3071ZM71.1687 43.6297C71.5633 43.8273 71.986 44.1095 72.1128 44.2506C72.3524 44.5047 72.3242 44.5188 71.3942 44.4906C69.8442 44.4623 68.7451 45.1962 67.7165 46.9461C65.8565 50.0931 65.5887 56.0626 67.1246 60.0423C68.1533 62.7095 70.0133 64.2195 71.7605 63.7821C72.5355 63.5845 72.4792 63.7962 71.5915 64.403C70.6051 65.0663 69.8583 65.1368 68.886 64.657C67.3501 63.9091 66.096 61.7075 65.3633 58.4194C65.011 56.8811 64.9265 52.4075 65.2083 50.7564C65.7155 47.8634 66.5469 45.8594 67.801 44.5329C69.0128 43.2628 69.9146 43.0088 71.1687 43.6297ZM26.9655 43.9119C30.7137 44.0672 38.4778 44.4059 39.6474 44.4764C40.3096 44.5047 41.9583 44.5752 43.311 44.6176C46.5519 44.7305 46.411 44.6881 46.411 45.4643C46.411 46.0288 46.3687 46.0993 46.101 46.0993C45.5374 46.1135 23.2455 44.5329 22.9215 44.4623C22.6115 44.4059 22.4846 44.0107 22.696 43.7849C22.7524 43.7285 23.316 43.7144 23.936 43.7567C24.556 43.799 25.9228 43.8696 26.9655 43.9119ZM59.7974 44.2648V44.8292H57.6556C55.5137 44.8292 55.4855 44.8292 54.7669 45.2526C52.7519 46.4098 51.3428 49.9943 51.3428 54.0022C51.3428 54.8207 51.1455 57.2763 50.906 59.4778C50.6665 61.6793 50.5115 63.5139 50.5537 63.5563C50.596 63.6127 51.3146 63.5704 52.146 63.4857C52.9633 63.3869 53.6678 63.3446 53.7101 63.3728C53.7383 63.4151 53.0619 63.7962 52.2165 64.2195C50.3846 65.1368 50.1592 65.3626 51.1455 65.2356C51.526 65.1933 52.4419 65.1227 53.1746 65.0804C53.9074 65.038 54.8374 64.9675 55.2178 64.9251C55.6687 64.8687 55.866 64.8828 55.7815 64.9816C55.6687 65.0945 49.4969 67.2678 49.2855 67.2678C49.2574 67.2678 49.2292 62.1874 49.2292 55.978C49.2292 47.059 49.2715 44.6599 49.4124 44.6176C49.5392 44.5752 58.2615 43.799 59.5578 43.7144C59.741 43.7003 59.7974 43.8132 59.7974 44.2648ZM56.4156 46.0429C56.4156 46.0852 56.2606 46.3251 56.0774 46.5651C54.936 48.1033 54.0201 51.3915 54.0201 54.0305C54.0201 54.6514 53.9919 54.7078 53.6678 54.7078C53.3296 54.7078 53.3156 54.7502 53.3156 55.4981C53.3156 57.5444 54.2737 60.508 55.3024 61.6793L55.7815 62.2297L55.3446 62.0039C54.3301 61.4818 53.3156 59.6189 52.8646 57.4033C52.456 55.4699 52.4701 52.5628 52.8787 50.7564C53.2028 49.317 53.8933 47.7082 54.4851 47.0025C54.9783 46.4098 56.4156 45.7042 56.4156 46.0429ZM58.8815 46.2405C58.8392 46.311 58.6419 46.3816 58.4446 46.3816C58.2474 46.3816 58.1346 46.3251 58.1769 46.2405C58.2192 46.1558 58.4165 46.0993 58.6137 46.0993C58.811 46.0993 58.9237 46.1558 58.8815 46.2405ZM60.1496 47.3695C59.4169 48.7948 58.9519 50.7564 58.8392 52.9438L58.7406 54.7784H58.3178H57.8951L57.9233 53.1555C57.9515 51.335 58.2615 49.8532 58.9378 48.4138C59.3324 47.5811 60.2624 46.3816 60.516 46.3816C60.5865 46.3816 60.4174 46.8191 60.1496 47.3695ZM35.1383 47.4824L46.3405 48.2868L46.3828 59.125C46.411 67.7476 46.3828 69.9491 46.2419 69.935C46.1433 69.9209 45.9037 69.8786 45.7065 69.8221L45.3542 69.7233L45.2837 59.5766L45.2133 49.4157L37.5337 48.7666C33.3065 48.3997 28.6705 48.0045 27.2192 47.8775C25.7678 47.7505 24.2883 47.6517 23.936 47.6517H23.3019L23.2737 56.5989L23.2315 65.532L22.9215 65.4191L22.5974 65.3062V55.978V46.6638L23.2737 46.678C23.6401 46.678 28.9805 47.0449 35.1383 47.4824ZM61.6433 47.7928C61.2769 48.8654 60.8119 51.6314 60.6992 53.466C60.6146 54.8349 60.6146 54.849 60.2624 54.849H59.896L59.9805 53.2543C60.0792 51.5467 60.3187 50.1778 60.7837 48.8654C61.0937 47.9481 61.756 46.7344 61.8687 46.8614C61.911 46.8896 61.7983 47.313 61.6433 47.7928ZM58.2192 47.1154C58.1487 47.3271 57.1201 47.4541 57.1201 47.2566C57.1201 47.0308 57.3033 46.9461 57.7965 46.9461C58.1065 46.9461 58.2474 47.0025 58.2192 47.1154ZM57.7542 48.0045C57.7542 48.0751 57.4865 48.1597 57.1624 48.188C56.5987 48.2303 56.4156 48.1174 56.6551 47.8775C56.8101 47.7364 57.7542 47.8352 57.7542 48.0045ZM57.3737 48.95C57.3315 49.0488 57.0496 49.1476 56.7256 49.1758C56.2606 49.2041 56.1337 49.1758 56.1337 49.0065C56.1337 48.8371 56.2887 48.7807 56.7819 48.7807C57.2328 48.7807 57.4019 48.8371 57.3737 48.95ZM33.9828 50.1214C38.7596 50.5447 43.0151 50.9258 43.4237 50.9822L44.1565 51.0528V51.7584V52.4499H43.6351C43.3392 52.4499 42.1556 52.3511 40.986 52.2382C39.8305 52.1253 35.9274 51.7725 32.3201 51.462C28.7128 51.1516 25.5001 50.8552 25.176 50.8129L24.5701 50.7423V50.0367C24.5701 49.3875 24.5983 49.3452 24.9224 49.3452C25.1196 49.3452 29.1919 49.698 33.9828 50.1214ZM57.0919 49.9379C57.0496 50.0367 56.7678 50.1214 56.4437 50.1496C55.9928 50.1778 55.8519 50.1355 55.8519 49.9802C55.8519 49.825 56.021 49.7685 56.5001 49.7685C56.9369 49.7685 57.1201 49.825 57.0919 49.9379ZM56.8383 50.827C56.8383 50.9822 56.6692 51.0387 56.2042 51.0387C55.6124 51.0387 55.4433 50.9399 55.6687 50.7141C55.711 50.6576 56.0069 50.6153 56.3028 50.6153C56.6833 50.6153 56.8383 50.6717 56.8383 50.827ZM56.6692 51.7725C56.6269 51.8713 56.3451 51.9701 56.021 51.9983C55.556 52.0265 55.4292 51.9983 55.4292 51.8289C55.4292 51.6596 55.5842 51.6031 56.0774 51.6031C56.5283 51.6031 56.6974 51.6596 56.6692 51.7725ZM68.6746 52.6192C69.2101 53.4942 68.7451 54.5667 68.111 53.9176C67.801 53.6212 67.5896 52.7604 67.7305 52.3793C67.8856 52.0124 68.3787 52.1394 68.6746 52.6192ZM30.2065 52.6616C30.6715 52.9156 31.3901 53.6777 31.6719 54.2421C31.9396 54.7784 32.1087 56.2461 31.9255 56.5142C31.8269 56.6553 31.7001 56.6553 31.2351 56.486L30.6715 56.2884L30.4742 56.867C30.3755 57.1775 30.0655 57.6855 29.7837 57.9678C28.1774 59.6613 25.7819 58.3488 25.7819 55.7663C25.7819 53.7341 27.3742 52.1817 29.2201 52.4075C29.5724 52.4499 30.0092 52.5628 30.2065 52.6616ZM56.6269 52.6616C56.6269 52.7321 56.331 52.8168 55.9646 52.845C55.3306 52.8874 55.1474 52.7886 55.3869 52.5346C55.5419 52.3934 56.6269 52.4922 56.6269 52.6616ZM74.9733 53.0144C75.2833 53.6353 75.1283 56.1332 74.6492 58.0666C74.1701 60.0282 73.0569 61.8769 72.0424 62.4132C71.5492 62.6672 70.7742 62.6672 70.436 62.4132C70.1824 62.2297 70.1965 62.2156 70.6051 62.0039C71.8874 61.3265 72.8455 59.0827 73.1837 55.9074C73.3528 54.3268 73.5078 53.72 73.9165 53.0426C74.2546 52.4922 74.7055 52.4781 74.9733 53.0144ZM71.9155 56.5424C71.6196 58.6028 70.901 60.3669 70.1401 60.8608C69.8583 61.0584 69.7315 61.0725 69.4215 60.9314L69.0551 60.762L69.5624 60.3387C70.2528 59.76 70.8728 58.4335 71.1406 56.8953C71.2674 56.1896 71.5069 55.0183 71.676 54.2845L71.986 52.9438L72.0283 54.2139C72.0565 54.9054 72.0001 55.9638 71.9155 56.5424ZM39.3655 53.6494C44.4946 54.1716 44.0156 54.0587 44.0156 54.722V55.2865L43.4237 55.2159C43.0856 55.1594 41.2396 54.976 39.2951 54.7784C34.0815 54.2563 34.5746 54.3692 34.5746 53.6918V53.1273L35.251 53.2119C35.6174 53.2543 37.4633 53.4519 39.3655 53.6494ZM56.5565 53.6494C56.5565 53.8047 56.3874 53.8611 55.9224 53.8611C55.4574 53.8611 55.2883 53.8047 55.2883 53.6494C55.2883 53.4942 55.4574 53.4377 55.9224 53.4377C56.3874 53.4377 56.5565 53.4942 56.5565 53.6494ZM56.5283 54.5244C56.5565 54.6514 56.3874 54.7078 55.9365 54.7078C55.4433 54.7078 55.2883 54.6514 55.2883 54.4821C55.2883 54.3127 55.4151 54.2845 55.8801 54.3127C56.2042 54.3409 56.486 54.4397 56.5283 54.5244ZM38.7596 56.4013C40.9156 56.6412 42.9728 56.867 43.3533 56.9094L44.0156 56.994V57.5444C44.0156 57.8408 43.9592 58.0948 43.8887 58.0948C43.8183 58.0948 41.7892 57.869 39.3655 57.6009C36.9419 57.3327 34.8846 57.1069 34.7719 57.1069C34.631 57.1069 34.5746 56.9376 34.5746 56.5424C34.5746 56.232 34.631 55.978 34.7155 55.978C34.786 55.978 36.6178 56.1755 38.7596 56.4013ZM69.6751 57.8549C69.1537 59.4214 68.6887 59.76 68.1955 58.9274L67.9419 58.4899L68.9001 57.5585C69.4496 57.0223 69.8865 56.6977 69.9146 56.7965C69.9428 56.8953 69.8301 57.3751 69.6751 57.8549ZM39.7883 59.3367L43.9451 59.8588L43.9874 60.381C44.0296 60.8608 44.0015 60.9173 43.7055 60.9173C43.3251 60.9173 35.3637 59.9576 34.8987 59.8588C34.631 59.7883 34.5746 59.6895 34.5746 59.2379V58.6875L35.1101 58.7581C35.3919 58.8004 37.5056 59.0544 39.7883 59.3367ZM34.2365 61.1995C39.2669 61.9757 43.5506 62.639 43.776 62.6954C44.1283 62.766 44.1565 62.8224 44.1565 63.4716C44.1565 63.9373 44.1001 64.1631 43.9733 64.1631C43.8183 64.1631 26.1483 61.4676 25.0351 61.2701C24.5842 61.1854 24.5701 61.1713 24.5701 60.4939C24.5701 59.9012 24.6124 59.7883 24.8237 59.7883C24.9646 59.7883 29.1919 60.4233 34.2365 61.1995ZM63.7146 64.4312C64.8137 65.659 65.6451 66.0965 67.1669 66.2235L68.2801 66.3223L67.7728 66.8162L67.2796 67.3242L64.7996 67.169L62.3196 66.9997L59.5437 68.0016C58.0219 68.5379 55.556 69.427 54.0905 69.9632C51.4274 70.9229 51.3851 70.937 50.0042 70.937C48.3274 70.9229 48.3415 70.9229 51.1033 69.8786C58.4165 67.1408 60.3187 66.3787 60.5442 66.1106C60.7274 65.8989 60.7837 65.5743 60.7837 64.7417C60.7837 64.1349 60.826 63.5986 60.8824 63.5563C60.9246 63.4998 61.3896 63.4575 61.911 63.4575H62.841L63.7146 64.4312ZM26.3174 64.0643C26.4724 64.4877 26.3455 64.8123 25.9369 65.0663C25.6551 65.2497 25.1337 64.8264 25.1337 64.4171C25.1337 63.5563 26.0496 63.2881 26.3174 64.0643ZM29.1919 64.3324C29.4315 64.5723 29.4033 65.2356 29.1355 65.4896C28.8819 65.7437 28.896 65.7437 28.586 65.6308C28.4592 65.5743 28.2901 65.3767 28.2196 65.1792C27.966 64.5159 28.7269 63.8667 29.1919 64.3324ZM34.2646 65.2215C34.5324 65.2921 34.5746 65.3909 34.5746 65.9271C34.5746 66.3364 34.5183 66.5622 34.4056 66.5622C34.0815 66.5622 31.8974 66.1529 31.7565 66.0682C31.6015 65.9695 31.5733 65.3062 31.686 64.9675C31.7565 64.7981 31.9255 64.7981 32.8555 64.9534C33.4474 65.0663 34.0815 65.1792 34.2646 65.2215ZM38.1678 65.8989L39.1542 66.0824L39.1965 66.7597L39.2387 67.4371L38.7737 67.3666C38.5201 67.3101 37.886 67.2113 37.3646 67.1126L36.4065 66.9573V66.2658C36.4065 65.5884 36.4205 65.5884 36.801 65.659C37.0124 65.7013 37.6324 65.8142 38.1678 65.8989Z" fill="white"/>
<path d="M29.9951 28.8683C29.0933 29.4186 28.6142 30.3642 28.6283 31.5637C28.6283 32.5092 28.9383 33.3136 29.5442 33.9346C31.066 35.5151 33.4896 34.118 33.4756 31.6484C33.4756 30.3218 32.9401 29.2775 32.0101 28.7977C31.4746 28.5154 30.5024 28.5578 29.9951 28.8683ZM30.9815 30.5194C31.3337 30.6605 31.6437 31.3944 31.5451 31.8601C31.4465 32.2834 30.8828 32.8338 30.5306 32.8338C30.4178 32.8338 30.1783 32.6786 29.9951 32.481C29.1496 31.6484 29.9246 30.1242 30.9815 30.5194Z" fill="white"/>
<path d="M45.636 28.8541C44.5792 29.5174 44.0719 30.6323 44.1987 31.9306C44.4524 34.372 46.721 35.4305 48.2428 33.8358C49.1587 32.8761 49.356 31.3097 48.7219 30.0396C48.5246 29.6303 48.1583 29.1646 47.9328 28.9953C47.3269 28.5719 46.1996 28.5013 45.636 28.8541ZM46.8196 30.8016C47.2283 31.3238 47.2001 32.0576 46.7633 32.481C46.3546 32.9044 46.1292 32.9185 45.6501 32.5375C45.3542 32.2975 45.2837 32.1282 45.2837 31.6202C45.2837 30.5194 46.2137 30.0255 46.8196 30.8016Z" fill="white"/>
<path d="M27.1346 54.3974C26.0215 55.4276 26.6415 57.5303 28.0505 57.5303C28.431 57.5303 28.6565 57.4174 29.0369 57.0364C29.516 56.5566 29.5301 56.5142 29.4737 55.6675C29.4174 54.9195 29.3469 54.7502 28.9665 54.4115C28.3605 53.8611 27.7124 53.8611 27.1346 54.3974ZM28.6001 55.3429C29.0792 56.0767 28.4169 56.9376 27.7265 56.4719C27.346 56.232 27.2474 55.4699 27.5574 55.1594C27.8392 54.8772 28.3465 54.9619 28.6001 55.3429Z" fill="white"/>
<path d="M82.681 21.6004C80.9478 22.4048 80.2574 23.6044 80.7224 24.9874C80.8492 25.3543 81.131 25.9752 81.3706 26.3563C81.596 26.7373 81.7792 27.0901 81.7792 27.1042C81.7792 27.1889 80.5533 27.8945 80.4124 27.8945C80.356 27.8945 79.9896 27.3723 79.6092 26.7232C79.2287 26.0881 78.7637 25.3261 78.5806 25.0297L78.2424 24.4934L77.5801 24.8745C76.4106 25.5377 76.4246 25.4107 77.4956 27.33C78.5383 29.1928 79.3837 30.1384 80.046 30.1807C80.821 30.2089 81.286 30.1242 81.9342 29.7997C83.9915 28.7554 84.3719 27.5276 83.301 25.4672C82.6669 24.2535 82.6669 24.3241 83.5124 23.8584C83.7378 23.7314 83.9915 23.6749 84.0901 23.7032C84.1887 23.7455 84.6678 24.4511 85.161 25.2696C85.6401 26.1022 86.0769 26.7937 86.1333 26.822C86.2178 26.8784 87.5706 26.0881 87.796 25.8623C87.9087 25.7494 86.1474 22.6447 85.6683 22.1367C84.7806 21.1771 83.9069 21.0218 82.681 21.6004Z" fill="white"/>
<path d="M3.50419 25.566C3.22237 26.074 3.01101 26.5679 3.03919 26.6526C3.10964 26.8643 11.3387 31.1403 11.4937 31.0556C11.6346 30.9569 12.4519 29.3622 12.4519 29.1787C12.4519 29.0235 11.3669 28.4308 6.92828 26.1446L4.02555 24.6487L3.50419 25.566Z" fill="white"/>
<path d="M0.474641 32.7915C-0.286268 35.4869 -0.15945 36.4607 1.05237 37.0957C1.51737 37.3356 5.88555 38.6481 6.77328 38.8033C7.68919 38.9726 8.57691 38.4646 9.0701 37.4909C9.39419 36.8417 10.2255 33.991 10.141 33.8358C10.0142 33.6523 8.33737 33.2148 8.22464 33.356C8.16828 33.4124 7.92873 34.1321 7.68919 34.9224C7.44964 35.7268 7.23828 36.4183 7.196 36.4465C7.13964 36.503 2.37691 35.1482 2.13737 35.0071C2.0951 34.9789 2.26419 34.2309 2.53191 33.3701C2.78555 32.4951 2.95464 31.733 2.89828 31.6907C2.78555 31.5778 1.34828 31.1403 1.10873 31.1403C1.02419 31.1403 0.728277 31.8883 0.474641 32.7915Z" fill="white"/>
<path d="M85.4428 32.608C83.0896 33.3277 81.131 33.991 81.1028 34.0757C81.0746 34.1604 81.4269 35.4446 81.8637 36.9264C82.4415 38.8315 82.7374 39.6077 82.8783 39.6077C83.3151 39.6077 84.5974 39.1279 84.5974 38.9585C84.5974 38.8739 84.4142 38.1824 84.1746 37.4203C83.9492 36.6582 83.7519 35.9526 83.7519 35.8538C83.7519 35.628 84.2592 35.3881 84.9637 35.2752C85.316 35.2188 85.4287 35.2611 85.4851 35.4587C85.9501 37.0251 86.3165 38.1965 86.3587 38.1965C86.3728 38.1965 86.8096 38.0695 87.331 37.9142C87.9087 37.7308 88.2328 37.5614 88.1905 37.4485C87.796 36.249 87.4015 34.7531 87.4578 34.6119C87.5565 34.3438 88.8387 34.0333 88.9655 34.245C89.0219 34.3297 89.2474 35.0353 89.4587 35.8256C89.6842 36.6018 89.9519 37.2651 90.0505 37.3074C90.1492 37.3497 90.586 37.2509 91.0369 37.1098C91.6992 36.884 91.8401 36.7711 91.8119 36.5453C91.7978 36.4042 91.4315 35.1623 91.0228 33.8075C90.4169 31.8318 90.2055 31.352 90.0083 31.3238C89.8533 31.3097 87.8101 31.8883 85.4428 32.608Z" fill="white"/>
</svg>
